<svg width="156" height="156" viewBox="0 0 156 156" fill="none" xmlns="http://www.w3.org/2000/svg">
<path d="M46.1703 42.7683C59.7815 42.7683 69.2486 52.9905 69.2486 67.1543C69.2486 81.2259 59.7815 91.5402 46.1703 91.5402C32.5591 91.5402 23 81.2259 23 67.1543C23 52.9905 32.5591 42.7683 46.1703 42.7683ZM28.0651 67.1543C28.0651 78.4079 35.4692 86.4751 46.1703 86.4751C56.7793 86.4751 64.1835 78.4079 64.1835 67.1543C64.1835 55.8085 56.7793 47.8334 46.1703 47.8334C35.4692 47.8334 28.0651 55.8085 28.0651 67.1543Z" fill="#010202"/>
<path d="M109.014 47.8334C96.25 47.8334 89.5088 54.5008 89.5088 67.1543V90.6009H84.5359V67.1543C84.5359 51.5723 93.3583 42.7683 109.014 42.7683V47.8334Z" fill="#010202"/>
<path d="M128.335 24C130.582 24 132 25.6024 132 27.7574C132 29.8202 130.6 31.5147 128.335 31.5147C126.069 31.5147 124.669 29.8202 124.669 27.7574C124.669 25.6024 126.069 24 128.335 24ZM125.793 43.7077H130.858V90.6193H125.793V43.7077Z" fill="#010202"/>
<path d="M45.4521 116.147C46.8334 116.147 47.9201 116.663 48.7305 117.713C49.5409 118.762 49.9461 120.089 49.9461 121.709C49.9461 123.349 49.5409 124.675 48.7305 125.725C47.9201 126.756 46.8334 127.29 45.4521 127.29C44.1259 127.29 43.1498 126.885 42.4867 126.056H41.9526V127.032H39.1714V112.04H42.0631V117.4H42.5972C43.205 116.552 44.1444 116.147 45.4521 116.147ZM44.5127 124.896C45.3415 124.896 45.9678 124.601 46.3914 124.012C46.8334 123.422 47.036 122.649 47.036 121.728C47.036 120.807 46.815 120.052 46.3914 119.462C45.9678 118.873 45.3231 118.578 44.5127 118.578C43.6655 118.578 43.0208 118.873 42.5788 119.481C42.1367 120.089 41.9341 120.825 41.9341 121.746C41.9341 122.649 42.1552 123.404 42.5788 124.012C43.0208 124.583 43.6655 124.896 44.5127 124.896Z" fill="#010202"/>
<path d="M57.6082 131.14H54.7165L56.9636 125.927L52.4695 116.424H55.4717L58.1055 122.078H58.6396L61.0709 116.424H63.981L57.6082 131.14Z" fill="#010202"/>
<path d="M86.1751 116.147C87.4092 116.147 88.3301 116.516 88.9563 117.252C89.5641 117.989 89.8772 119.02 89.8772 120.328V127.014H86.9855V120.881C86.9855 119.426 86.4514 118.689 85.3831 118.689C84.7569 118.689 84.278 118.91 83.9465 119.334C83.615 119.776 83.4492 120.347 83.4492 121.083V126.996H80.5391V120.862C80.5391 119.407 80.005 118.671 78.9367 118.671C78.2736 118.671 77.7948 118.91 77.4632 119.407C77.1317 119.886 76.9843 120.531 76.9843 121.286V126.977H74.0927V116.368H76.8738V117.344H77.408C77.9237 116.516 78.7893 116.11 80.0418 116.11C81.2942 116.11 82.1967 116.516 82.7493 117.344H83.2834C83.9097 116.552 84.8674 116.147 86.1751 116.147Z" fill="#010202"/>
<path d="M103.875 121.176V122.041H96.2866C96.3603 123.938 97.226 124.878 98.8652 124.878C99.915 124.878 100.578 124.509 100.854 123.773H103.783C103.562 124.878 103.028 125.725 102.199 126.351C101.352 126.977 100.247 127.272 98.8284 127.272C97.1707 127.272 95.8446 126.756 94.8868 125.743C93.9106 124.73 93.4318 123.367 93.4318 121.654C93.4318 119.96 93.9107 118.615 94.8684 117.621C95.8262 116.626 97.1339 116.129 98.7731 116.129C100.339 116.129 101.573 116.589 102.494 117.529C103.378 118.486 103.838 119.702 103.875 121.176ZM98.7363 118.321C97.4654 118.321 96.6918 118.929 96.3787 120.144H100.91C100.725 118.91 100.007 118.321 98.7363 118.321Z" fill="#010202"/>
<path d="M114.079 127.014V126.112H113.545C112.863 126.904 111.887 127.29 110.579 127.29C109.419 127.29 108.517 126.959 107.835 126.277C107.154 125.596 106.822 124.767 106.822 123.772C106.822 122.833 107.172 122.004 107.89 121.304C108.609 120.604 109.677 120.255 111.132 120.255H113.95V119.978C113.95 118.873 113.324 118.321 112.071 118.321C110.966 118.321 110.358 118.707 110.285 119.463H107.411C107.448 118.468 107.872 117.658 108.719 117.068C109.566 116.46 110.635 116.166 111.942 116.166C113.453 116.166 114.631 116.497 115.479 117.142C116.326 117.786 116.75 118.799 116.75 120.144V127.032H114.079V127.014ZM111.592 124.988C112.292 124.988 112.863 124.785 113.305 124.362C113.747 123.957 113.968 123.422 113.968 122.759V122.096H111.703C110.377 122.096 109.714 122.575 109.714 123.515C109.714 124.509 110.34 124.988 111.592 124.988Z" fill="#010202"/>
<path d="M120.894 112.022H123.785V127.014H120.894V112.022Z" fill="#010202"/>
</svg>
