<?xml version="1.0" encoding="utf-8"?>
<!-- Generator: Adobe Illustrator 26.0.2, SVG Export Plug-In . SVG Version: 6.00 Build 0)  -->
<svg version="1.1" id="Слой_1" xmlns="http://www.w3.org/2000/svg" xmlns:xlink="http://www.w3.org/1999/xlink" x="0px" y="0px"
	 viewBox="0 0 155.91 155.91" style="enable-background:new 0 0 155.91 155.91;" xml:space="preserve">
<style type="text/css">
	.st0{fill:#010202;}
</style>
<g>
	<g>
		<g>
			<path class="st0" d="M58.54,51.44c7.39,0,12.53,5.55,12.53,13.24c0,7.64-5.14,13.24-12.53,13.24s-12.58-5.6-12.58-13.24
				C45.96,56.99,51.15,51.44,58.54,51.44z M48.71,64.68c0,6.11,4.02,10.49,9.83,10.49c5.76,0,9.78-4.38,9.78-10.49
				c0-6.16-4.02-10.49-9.78-10.49C52.73,54.19,48.71,58.52,48.71,64.68z"/>
			<path class="st0" d="M92.66,54.19c-6.93,0-10.59,3.62-10.59,10.49v12.73h-2.7V64.68c0-8.46,4.79-13.24,13.29-13.24V54.19z"/>
			<path class="st0" d="M103.15,41.25c1.22,0,1.99,0.87,1.99,2.04c0,1.12-0.76,2.04-1.99,2.04s-1.99-0.92-1.99-2.04
				C101.16,42.12,101.92,41.25,103.15,41.25z M101.77,51.95h2.75v25.47h-2.75V51.95z"/>
		</g>
	</g>
	<g>
		<g>
			<path class="st0" d="M58.15,91.28c0.75,0,1.34,0.28,1.78,0.85c0.44,0.57,0.66,1.29,0.66,2.17c0,0.89-0.22,1.61-0.66,2.18
				c-0.44,0.56-1.03,0.85-1.78,0.85c-0.72,0-1.25-0.22-1.61-0.67h-0.29v0.53h-1.51v-8.14h1.57v2.91h0.29
				C56.93,91.5,57.44,91.28,58.15,91.28z M57.64,96.03c0.45,0,0.79-0.16,1.02-0.48c0.24-0.32,0.35-0.74,0.35-1.24
				c0-0.5-0.12-0.91-0.35-1.23c-0.23-0.32-0.58-0.48-1.02-0.48c-0.46,0-0.81,0.16-1.05,0.49c-0.24,0.33-0.35,0.73-0.35,1.23
				c0,0.49,0.12,0.9,0.35,1.23C56.83,95.86,57.18,96.03,57.64,96.03z"/>
			<path class="st0" d="M64.75,99.42h-1.57l1.22-2.83l-2.44-5.16h1.63l1.43,3.07h0.29l1.32-3.07h1.58L64.75,99.42z"/>
			<path class="st0" d="M80.26,91.28c0.67,0,1.17,0.2,1.51,0.6c0.33,0.4,0.5,0.96,0.5,1.67v3.63H80.7v-3.33
				c0-0.79-0.29-1.19-0.87-1.19c-0.34,0-0.6,0.12-0.78,0.35c-0.18,0.24-0.27,0.55-0.27,0.95v3.21H77.2v-3.33
				c0-0.79-0.29-1.19-0.87-1.19c-0.36,0-0.62,0.13-0.8,0.4c-0.18,0.26-0.26,0.61-0.26,1.02v3.09H73.7v-5.76h1.51v0.53h0.29
				c0.28-0.45,0.75-0.67,1.43-0.67c0.68,0,1.17,0.22,1.47,0.67h0.29C79.03,91.5,79.55,91.28,80.26,91.28z"/>
			<path class="st0" d="M89.87,94.01v0.47h-4.12c0.04,1.03,0.51,1.54,1.4,1.54c0.57,0,0.93-0.2,1.08-0.6h1.59
				c-0.12,0.6-0.41,1.06-0.86,1.4c-0.46,0.34-1.06,0.5-1.83,0.5c-0.9,0-1.62-0.28-2.14-0.83c-0.53-0.55-0.79-1.29-0.79-2.22
				c0-0.92,0.26-1.65,0.78-2.19c0.52-0.54,1.23-0.81,2.12-0.81c0.85,0,1.52,0.25,2.02,0.76C89.6,92.55,89.85,93.21,89.87,94.01z
				 M87.08,92.46c-0.69,0-1.11,0.33-1.28,0.99h2.46C88.16,92.78,87.77,92.46,87.08,92.46z"/>
			<path class="st0" d="M95.41,97.18v-0.49h-0.29c-0.37,0.43-0.9,0.64-1.61,0.64c-0.63,0-1.12-0.18-1.49-0.55
				c-0.37-0.37-0.55-0.82-0.55-1.36c0-0.51,0.19-0.96,0.58-1.34c0.39-0.38,0.97-0.57,1.76-0.57h1.53v-0.15c0-0.6-0.34-0.9-1.02-0.9
				c-0.6,0-0.93,0.21-0.97,0.62h-1.56c0.02-0.54,0.25-0.98,0.71-1.3c0.46-0.33,1.04-0.49,1.75-0.49c0.82,0,1.46,0.18,1.92,0.53
				s0.69,0.9,0.69,1.63v3.74H95.41z M94.06,96.08c0.38,0,0.69-0.11,0.93-0.34c0.24-0.22,0.36-0.51,0.36-0.87v-0.36h-1.23
				c-0.72,0-1.08,0.26-1.08,0.77C93.04,95.82,93.38,96.08,94.06,96.08z"/>
			<path class="st0" d="M99.11,89.04h1.57v8.14h-1.57V89.04z"/>
		</g>
	</g>
</g>
</svg>
